<?xml version="1.0" standalone="no"?>
<!DOCTYPE svg PUBLIC "-//W3C//DTD SVG 20010904//EN"
 "http://www.w3.org/TR/2001/REC-SVG-20010904/DTD/svg10.dtd">
<svg version="1.0" xmlns="http://www.w3.org/2000/svg"
 width="556.000000pt" height="446.000000pt" viewBox="0 0 556.000000 446.000000"
 preserveAspectRatio="xMidYMid meet">

<g transform="translate(0.000000,446.000000) scale(0.100000,-0.100000)"
fill="#000000" stroke="none">
<path d="M2630 4329 c-14 -4 -41 -7 -62 -8 -41 -1 -132 -65 -143 -101 -6 -17
-12 -20 -36 -15 -25 6 -29 3 -29 -14 0 -30 -19 -35 -26 -6 -8 34 -27 32 -41
-5 -12 -32 -37 -40 -47 -15 -3 8 -12 15 -20 15 -7 0 -16 -7 -20 -15 -3 -8 -15
-15 -26 -15 -13 0 -20 -7 -20 -20 0 -11 -7 -20 -15 -20 -8 0 -22 -17 -31 -37
-14 -34 -17 -36 -28 -21 -15 20 -26 14 -26 -14 0 -13 -7 -18 -27 -18 -21 0
-24 -3 -15 -12 17 -17 15 -28 -7 -28 -17 0 -51 -51 -51 -77 0 -11 -71 -93 -81
-93 -4 0 -11 15 -15 33 l-8 32 -8 -45 c-4 -25 -12 -46 -18 -48 -5 -2 -10 -10
-10 -18 0 -12 -3 -12 -23 0 -12 8 -31 15 -42 14 -11 0 -34 3 -52 7 -26 6 -34
3 -45 -14 -16 -26 -25 -27 -33 -1 -10 31 -25 24 -26 -12 -1 -18 -3 -25 -6 -15
-6 24 -23 21 -23 -4 0 -16 -3 -19 -13 -11 -7 6 -30 8 -52 5 -30 -4 -46 -13
-63 -36 -19 -27 -20 -34 -8 -52 8 -12 28 -22 50 -25 24 -3 41 -13 49 -26 7
-12 18 -32 26 -44 12 -20 11 -22 -3 -17 -8 3 -17 3 -20 -1 -7 -11 -48 -7 -73
6 -31 17 -33 16 -33 -18 0 -16 -4 -30 -9 -30 -5 0 -12 -11 -15 -25 -7 -27 -39
-65 -56 -65 -5 0 -10 -9 -10 -20 0 -25 -26 -26 -32 -2 -4 14 -13 18 -37 16
-30 -2 -31 -1 -31 41 0 24 -5 47 -11 51 -8 5 -10 -11 -7 -55 3 -50 2 -61 -10
-56 -10 3 -13 -2 -10 -23 2 -22 -1 -28 -20 -30 -28 -4 -39 -27 -22 -47 10 -13
10 -23 -3 -53 -9 -20 -18 -48 -19 -62 -2 -17 -9 -25 -23 -25 -16 0 -19 6 -17
30 3 27 2 28 -15 15 -41 -34 -65 -43 -74 -28 -5 7 -9 17 -9 21 0 5 -4 6 -9 3
-5 -3 -7 -15 -4 -27 4 -14 0 -22 -14 -25 -27 -7 -77 -90 -67 -112 4 -9 6 -23
5 -30 -1 -7 6 -15 16 -19 10 -4 24 -13 31 -20 12 -11 26 -15 48 -12 4 0 10 -4
14 -11 4 -7 18 0 38 21 l32 33 0 -27 c0 -35 18 -44 30 -13 8 22 11 23 34 13
14 -7 26 -18 26 -24 0 -20 10 -16 33 13 l21 27 9 -24 c8 -23 10 -23 20 -5 36
57 43 61 72 46 15 -8 30 -21 33 -30 10 -27 26 -30 49 -8 19 18 36 21 125 23
99 2 105 1 173 -32 39 -19 81 -41 95 -49 14 -7 50 -26 80 -40 30 -15 79 -47
107 -71 59 -50 95 -63 168 -63 89 0 119 -15 209 -103 46 -45 95 -100 110 -122
14 -22 69 -80 121 -128 106 -98 110 -105 167 -256 l40 -106 6 -240 c3 -132 6
-298 6 -370 l1 -130 -43 -3 c-41 -3 -43 -2 -33 17 15 27 14 63 -3 86 -7 11
-18 36 -24 55 -5 19 -13 44 -18 55 -6 16 -3 15 15 -5 12 -14 19 -19 15 -11 -3
7 -10 43 -15 80 -4 36 -15 95 -24 131 -8 36 -20 135 -24 220 -12 204 -41 287
-154 439 -96 130 -157 156 -318 136 -74 -8 -147 9 -284 67 -61 26 -75 28 -110
19 -63 -16 -194 -30 -257 -28 -53 2 -60 -1 -93 -33 -20 -19 -50 -53 -65 -76
-54 -77 -163 -364 -146 -382 3 -2 25 7 50 22 42 24 96 35 96 19 0 -11 -75 -57
-124 -77 l-39 -16 6 -73 c7 -94 21 -137 60 -188 67 -88 110 -98 168 -39 38 37
40 96 6 136 -31 36 -45 25 -40 -31 4 -44 3 -46 -19 -43 -58 8 -81 158 -40 252
21 47 23 48 55 42 26 -5 38 -2 52 14 12 13 31 20 56 20 33 0 38 -3 44 -29 10
-49 27 -55 76 -31 l42 22 -6 -56 c-6 -65 -47 -249 -84 -381 -14 -49 -28 -119
-30 -155 -6 -72 -13 -89 -57 -142 l-31 -38 -82 0 -83 0 0 -40 0 -40 1658 2
1657 3 3 38 c2 20 -1 37 -6 37 -6 0 -12 15 -15 33 -3 17 -8 43 -13 56 -4 16
-4 22 3 18 10 -6 1 67 -13 103 -3 8 -9 61 -14 117 -11 142 -32 194 -105 270
l-61 63 -79 -1 c-61 -1 -93 3 -134 20 -49 20 -65 21 -160 15 -101 -7 -107 -8
-135 -38 -34 -36 -89 -150 -106 -218 -24 -93 10 -208 67 -229 46 -17 95 55 61
89 -19 19 -28 14 -28 -13 0 -30 -15 -33 -30 -6 -23 45 -5 149 25 137 7 -2 21
2 32 9 26 21 50 18 56 -6 5 -17 11 -20 31 -15 35 9 34 -4 -9 -184 -19 -80 -35
-153 -35 -162 0 -10 -9 -27 -20 -38 -20 -20 -31 -20 -368 -18 l-347 3 -3 49
c-2 30 3 61 14 84 9 19 19 53 22 76 3 23 10 44 17 48 6 4 12 29 13 55 0 46 0
47 -9 15 -12 -39 -26 -46 -62 -33 -24 9 -27 8 -27 -9 0 -10 8 -23 18 -29 12
-7 14 -13 6 -21 -8 -8 -26 -7 -69 4 -92 24 -120 1 -112 -92 2 -24 0 -45 -5
-48 -4 -3 -8 -20 -8 -39 0 -46 -9 -65 -30 -65 -16 0 -18 16 -25 178 -3 97 -11
201 -16 231 -5 30 -9 132 -9 225 0 170 0 172 30 233 17 34 39 105 50 158 20
101 62 188 129 265 52 60 38 22 -23 -64 -24 -34 -16 -42 17 -16 14 11 33 43
42 70 21 65 33 75 103 95 31 9 68 27 82 40 52 50 105 54 160 14 36 -27 71 -21
88 14 15 30 26 33 62 12 37 -21 70 -18 115 10 25 15 55 24 82 25 23 0 65 9 93
20 28 11 64 20 80 20 19 0 35 9 50 27 l22 28 -7 -27 c-13 -52 4 -70 56 -59 6
1 17 26 34 76 6 20 7 20 21 1 18 -25 18 -9 -1 44 -21 59 -3 80 38 43 18 -17
19 -17 32 0 15 21 82 23 109 2 51 -39 77 6 35 60 -16 20 -28 26 -47 22 -14 -3
-39 4 -59 15 -28 17 -39 19 -59 9 -58 -26 -58 -3 1 63 46 51 72 56 54 9 -13
-36 4 -52 24 -22 14 19 19 20 32 9 8 -7 15 -21 15 -31 0 -24 89 -111 110 -107
9 2 15 15 15 34 0 24 4 30 17 26 12 -3 15 1 11 16 -4 16 -1 19 21 15 21 -4 28
0 36 22 8 21 6 36 -9 70 -15 35 -34 53 -88 88 -37 24 -81 60 -96 80 -15 21
-33 37 -39 37 -5 0 -19 11 -30 25 -23 30 -41 31 -76 6 -39 -27 -68 -34 -93
-21 -15 8 -19 18 -15 33 6 22 -33 67 -59 67 -8 0 -19 9 -25 21 -7 13 -17 18
-27 15 -10 -4 -22 2 -30 14 -9 12 -21 19 -29 16 -9 -3 -19 4 -26 19 -6 14 -15
25 -19 25 -5 0 -6 13 -3 29 7 32 -10 71 -30 71 -8 0 -19 6 -25 14 -7 8 -26 18
-42 21 -36 8 -43 19 -29 45 12 23 7 25 -22 9 -16 -9 -24 -6 -45 13 -14 12 -31
35 -39 51 -13 23 -18 26 -35 16 -27 -14 -49 -5 -49 20 0 28 19 36 34 15 9 -12
15 -14 20 -6 14 24 38 11 53 -28 24 -60 44 -53 40 16 -3 45 0 57 15 65 18 10
25 39 10 39 -5 0 -26 16 -46 36 -28 27 -43 35 -60 30 -15 -4 -28 0 -36 9 -15
18 -81 20 -98 3 -9 -9 -12 -5 -12 20 0 17 -6 35 -13 39 -8 4 -16 16 -20 25 -4
11 -12 15 -22 12 -10 -4 -15 0 -15 10 0 10 -9 16 -24 16 -13 0 -29 7 -36 15
-8 10 -18 12 -28 6 -10 -6 -26 -1 -51 16 -33 22 -36 23 -48 7 -7 -9 -14 -20
-15 -25 -7 -17 -60 4 -69 28 -5 13 -14 21 -19 18 -6 -4 -17 -1 -26 5 -12 10
-18 8 -34 -10 -11 -13 -20 -27 -20 -32 0 -21 -38 -6 -44 17 -4 14 -13 25 -21
25 -8 0 -15 4 -15 9 0 5 -15 17 -32 26 -30 14 -34 14 -44 0 -6 -8 -18 -13 -27
-9 -8 3 -18 1 -21 -5 -4 -5 -18 1 -33 15 -26 24 -105 64 -126 64 -6 0 -18 -7
-28 -16 -16 -14 -18 -14 -28 5 -16 28 -41 39 -71 30z m118 -192 c21 -57 16
-77 -17 -77 -34 0 -61 23 -61 51 0 21 10 25 27 8 17 -17 35 0 29 27 -9 36 8
29 22 -9z m-213 -7 c-4 -6 -15 -8 -24 -5 -11 3 -25 -3 -36 -15 -21 -23 -55
-27 -55 -6 0 7 15 18 33 24 43 14 90 15 82 2z m833 -179 c17 -2 15 -12 -7 -41
-17 -21 -21 -22 -36 -10 -15 12 -19 12 -30 -3 -6 -9 -15 -14 -18 -10 -4 3 -13
0 -22 -7 -8 -7 -21 -10 -30 -7 -13 5 -12 10 2 35 25 43 57 53 141 43z m322
-12 c0 -5 -13 -15 -29 -23 -16 -9 -31 -25 -34 -38 -6 -22 -6 -22 -32 6 l-26
28 23 22 c17 16 33 20 61 17 20 -2 37 -7 37 -12z m-264 -16 c-10 -10 -19 5
-10 18 6 11 8 11 12 0 2 -7 1 -15 -2 -18z m62 -5 c18 -18 15 -28 -8 -28 -13 0
-20 7 -20 20 0 23 10 26 28 8z m-1070 -29 c17 -16 32 -38 32 -47 -1 -15 -2
-15 -15 2 -8 10 -16 24 -18 30 -3 8 -8 7 -19 -2 -13 -10 -17 -10 -22 4 -8 22
-8 44 2 44 4 0 22 -14 40 -31z m398 -144 c4 -14 3 -29 0 -33 -9 -8 -26 18 -26
41 0 26 19 20 26 -8z m64 8 c0 -8 -5 -24 -11 -35 -11 -21 -12 -21 -25 -3 -22
30 -17 53 11 53 15 0 25 -6 25 -15z m246 -31 c-12 -11 -18 7 -10 30 l8 23 4
-23 c2 -13 1 -26 -2 -30z m-1090 7 c3 -6 15 -8 26 -6 11 3 21 0 25 -9 3 -8 9
-14 13 -14 5 0 20 -4 35 -10 20 -8 24 -13 17 -27 -21 -37 132 -203 200 -218
36 -8 58 -40 58 -86 0 -30 -6 -41 -36 -64 -33 -25 -39 -26 -77 -16 -23 5 -57
13 -76 17 -27 5 -36 13 -48 44 -10 24 -26 43 -46 53 -21 10 -26 16 -14 16 9 1
17 5 17 10 0 16 41 20 47 5 7 -19 59 -18 67 2 18 48 -8 94 -54 94 -24 0 -27 3
-22 27 4 21 2 25 -12 20 -13 -5 -16 0 -16 23 0 17 -4 30 -10 30 -5 0 -10 -4
-10 -10 0 -18 -19 -10 -25 11 -4 13 0 27 11 40 14 15 14 19 3 19 -8 0 -20 -5
-26 -11 -15 -15 -34 -2 -31 19 2 12 -5 18 -24 20 -27 3 -35 12 -21 25 9 10 21
8 29 -4z m1081 -106 c-9 -9 -47 17 -47 32 0 8 9 15 20 15 11 0 21 6 22 13 0 6
3 -3 5 -21 3 -19 2 -36 0 -39z m-327 37 c-12 -23 -30 -27 -30 -7 0 17 10 27
27 27 11 0 11 -5 3 -20z m-60 -20 c0 -5 9 -14 21 -21 17 -9 25 -7 47 13 23 21
24 21 17 3 -4 -11 -9 -28 -12 -37 -6 -22 -32 -31 -39 -14 -3 8 -15 11 -28 9
-28 -6 -37 6 -29 35 5 22 23 31 23 12z m298 -17 c6 -16 14 -43 17 -62 7 -34 7
-34 -25 -27 -18 3 -45 6 -61 6 -26 0 -29 4 -29 31 0 28 2 30 29 24 26 -5 29
-3 34 25 8 37 21 39 35 3z m-460 -32 c15 -49 15 -52 -4 -44 -12 4 -14 0 -8
-21 5 -20 2 -26 -10 -26 -9 0 -16 8 -16 19 0 38 13 111 20 111 4 0 12 -17 18
-39z m722 14 c0 -8 -4 -15 -10 -15 -5 0 -10 7 -10 15 0 8 5 15 10 15 6 0 10
-7 10 -15z m-886 -10 c-6 -16 -24 -21 -24 -7 0 11 11 22 21 22 5 0 6 -7 3 -15z
m94 -26 c2 -23 2 -23 -13 -5 -18 24 -20 39 -2 34 6 -3 13 -15 15 -29z m382
-22 c0 -14 -5 -17 -22 -11 -50 15 -66 50 -25 56 24 4 46 -17 47 -45z m596 -31
c-19 -45 -31 -46 -46 -1 -14 43 -8 65 19 65 11 0 23 6 28 13 15 23 15 -40 -1
-77z m-800 -17 c22 -44 33 -78 29 -90 -9 -27 -25 -24 -25 6 0 14 -4 25 -10 25
-5 0 -10 -11 -10 -24 0 -30 -16 -42 -35 -26 -22 18 -18 37 8 44 22 6 21 7 -11
34 -18 15 -32 36 -32 47 0 26 28 67 41 59 5 -3 25 -37 45 -75z m14 72 c0 -5 8
-7 18 -4 28 7 47 -21 27 -40 -8 -9 -15 -20 -15 -26 0 -6 -4 -11 -10 -11 -5 0
-10 9 -10 21 0 11 -4 18 -9 15 -5 -3 -12 1 -15 10 -9 24 -7 44 4 44 6 0 10 -4
10 -9z m860 -6 l1 20 9 -20 c5 -11 9 -33 9 -49 1 -23 -2 -26 -12 -17 -11 8
-18 6 -32 -9 -19 -21 -35 -26 -35 -11 0 5 10 30 22 57 18 42 22 46 29 29 8
-20 8 -20 9 0z m-194 -25 c16 0 16 -2 -5 -17 -23 -16 -25 -15 -43 6 -22 28
-13 49 11 27 10 -9 26 -16 37 -16z m-155 -54 c5 -6 9 7 9 35 1 35 3 40 11 27
5 -10 17 -18 26 -18 17 0 53 -28 53 -40 0 -5 -7 -11 -15 -14 -10 -4 -20 3 -27
19 -14 32 -29 22 -22 -15 5 -21 0 -37 -17 -59 -32 -40 -39 -38 -40 7 l-1 37
-10 -35 c-12 -43 -25 -60 -47 -60 -15 1 -15 2 0 13 31 24 52 87 29 87 -5 0
-10 -9 -10 -20 0 -26 -12 -25 -36 1 -14 16 -15 23 -6 26 6 3 12 14 12 25 0 17
3 18 15 8 10 -8 15 -9 15 -2 0 6 10 21 23 32 l22 21 3 -33 c2 -18 8 -37 13
-42z m-766 44 c3 -6 -1 -13 -10 -16 -19 -8 -30 0 -20 15 8 14 22 14 30 1z
m410 -20 c0 -9 -11 -16 -27 -18 -23 -3 -28 1 -28 18 0 17 5 21 28 18 16 -2 27
-9 27 -18z m585 -35 c0 -7 -3 -21 -6 -30 -5 -13 -8 -14 -15 -3 -6 9 -9 7 -9
-8 0 -27 -28 -40 -37 -17 -5 13 -8 12 -15 -7 -12 -34 -17 -21 -11 31 5 46 6
47 34 39 27 -8 28 -7 23 23 l-5 32 20 -24 c12 -13 21 -29 21 -36z m-1480 -4
c0 -3 -20 -7 -45 -8 -51 -2 -61 12 -15 22 17 4 30 12 30 18 0 7 7 3 15 -7 8
-11 15 -22 15 -25z m1755 -5 c17 -41 10 -69 -14 -61 -14 4 -17 0 -14 -22 4
-33 1 -39 -55 -82 -35 -28 -46 -31 -53 -20 -15 24 -11 41 9 35 10 -4 33 1 50
10 32 15 39 39 34 106 -2 20 15 68 23 68 3 0 12 -15 20 -34z m-60 -54 c-10
-65 -24 -80 -46 -51 l-17 23 -32 -28 c-32 -27 -50 -30 -57 -9 -2 6 29 40 68
77 82 76 97 73 84 -12z m-1814 -4 c9 -37 9 -44 -7 -55 -10 -7 -26 -13 -35 -13
-10 0 -21 -5 -24 -10 -9 -15 -25 -2 -25 22 0 15 5 19 19 15 31 -8 54 25 46 64
-11 47 12 27 26 -23z m1664 -8 c-30 -31 -55 -39 -55 -17 0 14 48 46 69 47 10
0 4 -11 -14 -30z m-425 10 c0 -5 -4 -10 -10 -10 -5 0 -10 5 -10 10 0 6 5 10
10 10 6 0 10 -4 10 -10z m-1178 -14 c10 -7 15 -16 11 -19 -11 -12 -22 -8 -33
13 -12 23 -3 25 22 6z m275 -90 l24 -36 -118 6 c-72 4 -123 11 -131 19 -11 10
-7 14 22 19 24 5 46 19 68 46 l33 38 38 -28 c22 -16 50 -45 64 -64z m1539 48
c-4 -9 -9 -15 -11 -12 -3 3 -3 13 1 22 4 9 9 15 11 12 3 -3 3 -13 -1 -22z
m250 14 c4 -5 -7 -13 -24 -19 -26 -9 -32 -16 -31 -38 0 -14 -2 -36 -6 -48 -6
-18 -2 -23 18 -28 24 -6 24 -8 12 -48 -12 -40 -14 -42 -56 -45 -24 -2 -51 -10
-60 -18 -32 -29 -32 7 -1 52 17 24 27 46 23 48 -11 7 -37 -22 -50 -55 -8 -23
-17 -27 -68 -34 -32 -4 -66 -14 -75 -22 -17 -15 -18 -13 -18 24 0 33 5 44 25
57 14 10 31 28 37 42 7 14 20 24 33 24 30 0 45 19 45 58 0 18 4 31 9 28 5 -4
11 -1 13 6 3 9 14 8 40 -5 45 -21 48 -21 48 1 0 10 2 21 4 23 7 7 74 4 82 -3z
m-216 -20 c0 -25 -84 -118 -107 -118 -15 0 -23 -7 -25 -22 -2 -13 -11 -24 -20
-26 -15 -3 -18 4 -18 33 0 28 4 36 14 32 9 -4 21 5 31 19 9 14 36 34 59 44 24
10 46 25 49 34 8 19 17 21 17 4z m-1260 -28 c0 -5 -4 -10 -10 -10 -5 0 -10 5
-10 10 0 6 5 10 10 10 6 0 10 -4 10 -10z m1008 -36 c2 -19 -3 -36 -13 -44 -20
-17 -81 -18 -96 -3 -15 15 16 43 41 36 15 -4 20 0 20 14 0 46 44 43 48 -3z
m-1608 17 c0 -6 -4 -13 -10 -16 -5 -3 -10 1 -10 9 0 9 5 16 10 16 6 0 10 -4
10 -9z m669 -10 c10 -10 21 -30 25 -45 3 -14 11 -26 16 -26 6 0 10 -7 10 -16
0 -11 6 -15 20 -11 21 5 34 -6 44 -41 5 -16 3 -24 -9 -28 -22 -9 -61 30 -76
73 -6 21 -20 38 -35 43 -18 7 -24 17 -24 40 0 35 4 36 29 11z m811 -16 c0 -8
-7 -15 -15 -15 -8 0 -15 7 -15 15 0 8 7 15 15 15 8 0 15 -7 15 -15z m-906 -13
c3 -10 33 -44 67 -77 52 -51 89 -100 89 -120 0 -3 -7 -5 -15 -5 -24 0 -17 -18
12 -32 29 -14 43 -38 22 -38 -7 0 -24 11 -38 24 -15 13 -48 37 -75 53 -27 15
-47 33 -45 38 2 5 9 9 16 7 6 -1 14 2 17 7 3 5 -2 8 -12 7 -12 -1 -17 6 -16
22 1 19 -3 22 -19 18 -13 -3 -21 1 -24 15 -4 12 -14 19 -30 19 -36 0 -23 24
15 28 36 4 43 21 11 29 -16 4 -17 8 -7 14 19 13 26 11 32 -9z m-592 -24 c-15
-15 -24 -6 -16 16 5 12 10 14 17 7 8 -8 8 -14 -1 -23z m2156 8 c4 -17 -43 -76
-60 -76 -4 0 -1 15 6 33 8 17 17 40 20 50 7 22 30 17 34 -7z m-2220 -9 c3 -16
1 -17 -17 -7 -25 13 -28 33 -4 28 10 -2 19 -11 21 -21z m163 7 c40 -13 75 -16
167 -12 106 5 115 4 95 -9 -30 -20 -29 -35 2 -27 20 5 25 2 25 -14 0 -10 -9
-31 -20 -45 -38 -48 -23 -64 17 -17 37 45 57 40 49 -11 -9 -56 -25 -86 -37
-68 -6 11 -11 11 -21 1 -6 -6 -20 -12 -29 -12 -23 0 -33 -32 -24 -77 8 -43 25
-73 42 -73 7 0 13 -5 13 -10 0 -6 15 -8 39 -4 22 4 47 1 60 -5 18 -10 22 -9
30 11 l9 23 12 -27 c15 -33 30 -36 30 -8 0 22 12 29 90 56 30 10 63 25 73 33
20 17 18 18 47 -38 12 -24 36 -58 54 -75 43 -44 114 -188 126 -256 5 -30 14
-95 21 -145 6 -49 15 -121 20 -160 10 -71 3 -154 -10 -138 -4 4 -25 49 -46 98
-39 93 -46 128 -65 346 -11 128 -15 145 -36 153 -12 5 -12 1 1 -24 9 -18 15
-56 15 -98 0 -38 5 -94 10 -123 6 -30 8 -67 4 -82 -6 -27 -7 -27 -87 57 -45
46 -108 114 -140 150 -47 53 -83 80 -185 138 -138 78 -223 156 -271 245 -18
33 -33 49 -49 51 -25 4 -44 38 -62 110 -9 35 -15 42 -35 42 -27 0 -31 11 -15
41 13 23 18 23 81 3z m944 6 c3 -5 1 -10 -4 -10 -6 0 -11 5 -11 10 0 6 2 10 4
10 3 0 8 -4 11 -10z m1058 -5 c-3 -9 -8 -14 -10 -11 -3 3 -2 9 2 15 9 16 15
13 8 -4z m-983 -5 c0 -5 -7 -10 -15 -10 -8 0 -15 5 -15 10 0 6 7 10 15 10 8 0
15 -4 15 -10z m1120 -16 c17 -15 29 -32 27 -38 -2 -6 3 -16 11 -22 19 -14 7
-34 -19 -34 -22 0 -24 -11 -7 -28 10 -9 8 -16 -5 -29 -13 -13 -20 -14 -29 -5
-9 9 -17 7 -34 -8 l-21 -21 -17 26 c-15 22 -15 28 -2 54 16 30 42 46 51 31 3
-5 1 -11 -5 -15 -5 -3 -10 -12 -10 -20 0 -10 5 -11 24 -2 13 7 22 15 20 19 -2
3 -6 21 -8 39 -2 17 -11 36 -20 41 -20 11 -21 38 -2 38 8 0 28 -12 46 -26z
m-2550 6 c0 -4 -12 -16 -27 -26 -16 -9 -34 -26 -41 -36 -16 -23 -31 -23 -48 0
-18 23 -17 29 6 35 11 3 20 12 20 19 0 11 13 15 45 16 25 0 45 -3 45 -8z
m2000 -15 c0 -20 -5 -25 -25 -25 -26 0 -26 0 -8 25 23 31 33 31 33 0z m-1823
-5 c22 0 42 -8 57 -23 13 -13 29 -21 36 -19 10 4 11 -3 7 -28 -6 -28 -5 -31 8
-20 13 11 21 6 53 -27 21 -21 51 -64 67 -95 18 -34 40 -62 57 -70 15 -7 52
-42 82 -78 l55 -65 -32 -3 c-56 -5 -175 60 -280 152 -39 35 -55 56 -51 66 30
68 35 94 24 121 -15 34 -25 38 -75 29 l-40 -7 36 -16 c24 -11 40 -26 46 -44
10 -30 6 -73 -6 -73 -10 0 -47 42 -53 60 -4 12 -7 10 -16 -7 -11 -20 -7 -27
35 -68 27 -26 39 -42 28 -37 -11 6 -51 24 -90 42 -81 37 -96 49 -136 108 -28
42 -30 62 -6 62 7 0 26 11 42 25 25 21 37 25 74 20 24 -3 59 -5 78 -5z m1143
-10 c0 -22 -20 -26 -38 -8 -19 19 -14 28 13 28 18 0 25 -5 25 -20z m80 -26 c0
-8 -4 -12 -10 -9 -5 3 -10 13 -10 21 0 8 5 12 10 9 6 -3 10 -13 10 -21z m75 6
c3 -5 1 -10 -4 -10 -6 0 -11 5 -11 10 0 6 2 10 4 10 3 0 8 -4 11 -10z m66 -23
c-1 -4 -1 -12 -1 -17 0 -6 -8 -5 -20 2 -27 17 -27 40 1 30 11 -5 20 -11 20
-15z m1148 -4 c20 -27 21 -28 36 -9 15 20 15 20 15 0 0 -27 -14 -46 -31 -42
-9 2 -15 -7 -17 -24 -2 -17 -9 -28 -19 -28 -13 0 -15 9 -9 53 5 47 5 50 -8 28
l-13 -24 -7 28 c-5 19 -3 31 6 36 20 13 25 11 47 -18z m-1208 -23 c44 0 73
-53 49 -90 -8 -12 -10 -9 -10 12 0 35 -16 44 -24 13 -5 -20 -10 -23 -29 -16
-17 6 -24 19 -29 57 -8 54 1 79 15 46 6 -12 18 -22 28 -22z m139 26 c0 -7 -6
-19 -14 -25 -11 -9 -12 -18 -3 -41 10 -26 8 -32 -17 -55 -36 -33 -44 -25 -22
23 13 30 15 44 7 66 -15 37 -13 45 3 23 13 -17 14 -16 19 3 6 22 27 28 27 6z
m60 -47 c-15 -27 -30 -24 -30 7 0 14 4 23 10 19 6 -3 10 4 11 17 l0 23 10 -23
c6 -15 5 -30 -1 -43z m360 41 c0 -5 -10 -9 -22 -7 -17 1 -24 -4 -28 -23 -9
-44 -33 -70 -63 -70 -19 0 -31 -6 -34 -17 -7 -29 -86 -83 -119 -83 -17 0 -35
-5 -42 -12 -6 -6 -15 -8 -19 -5 -9 9 83 86 234 195 43 31 93 43 93 22z m-1127
-96 c10 -13 28 -26 40 -30 29 -9 77 -43 77 -55 0 -20 -37 -8 -48 16 -14 31
-42 33 -42 4 0 -16 -4 -19 -17 -14 -10 4 -26 10 -35 12 -22 6 -24 33 -3 33 8
0 15 9 15 20 0 27 -16 25 -45 -6 l-25 -27 0 39 c-1 32 -3 36 -11 21 -9 -15
-12 -16 -25 -2 -9 8 -20 13 -25 10 -5 -4 -9 6 -9 20 0 14 4 24 9 21 4 -3 16 3
26 14 18 19 18 19 59 -17 23 -21 49 -47 59 -59z m945 48 c-13 -13 -43 -38 -67
-55 l-44 -30 7 26 c9 37 61 93 71 76 6 -9 11 -6 17 10 7 20 11 21 23 11 14
-12 13 -16 -7 -38z m568 -10 c-4 -3 -14 2 -23 11 -16 16 -16 18 2 31 18 13 20
13 23 -11 2 -13 1 -28 -2 -31z m-2477 22 c2 -1 6 -18 10 -36 5 -26 12 -34 33
-36 33 -4 56 -28 40 -44 -7 -7 -24 -8 -49 -2 -51 11 -69 8 -104 -17 -24 -17
-33 -18 -44 -9 -20 17 -19 30 8 64 21 26 25 27 44 15 18 -10 24 -10 37 0 20
17 12 31 -13 24 -21 -5 -47 29 -36 48 6 9 62 4 74 -7z m-102 -21 c4 -11 -5
-26 -32 -49 -35 -29 -53 -34 -93 -25 -2 1 5 14 14 30 9 16 23 27 30 24 7 -2
17 5 24 16 13 25 48 28 57 4z m2185 6 c17 -9 18 -13 7 -20 -23 -15 -39 -10
-39 11 0 23 4 24 32 9z m293 -19 c23 -26 42 -25 50 1 6 19 8 20 26 3 10 -9 19
-30 19 -46 0 -25 -6 -32 -42 -47 -24 -10 -63 -22 -87 -25 -38 -6 -43 -5 -37
10 4 10 11 38 17 62 15 70 23 76 54 42z m-2340 0 c3 -5 1 -10 -4 -10 -6 0 -11
5 -11 10 0 6 2 10 4 10 3 0 8 -4 11 -10z m2239 0 c29 -11 32 -30 12 -75 l-13
-30 -15 36 c-35 82 -34 88 16 69z m420 -38 c-8 -12 -32 -19 -90 -25 -43 -5
-87 -13 -96 -18 -15 -8 -18 -5 -18 16 0 23 2 24 20 13 15 -10 22 -10 31 -1 7
7 24 9 40 6 23 -4 30 -1 40 20 13 30 47 39 69 20 11 -10 12 -18 4 -31z m-1242
8 c3 -16 3 -30 2 -30 -9 0 -34 34 -34 46 0 27 28 14 32 -16z m743 20 c9 -15
-40 -111 -82 -159 -25 -30 -47 -44 -80 -52 -30 -8 -81 -39 -151 -92 -111 -83
-154 -107 -196 -107 -29 0 -43 15 -21 23 8 4 25 24 39 46 l25 39 60 -5 60 -6
22 37 c12 21 29 36 40 36 22 0 77 71 85 109 13 68 19 75 84 108 67 33 104 40
115 23z m54 -124 c-2 -2 -22 -6 -45 -8 l-40 -6 25 65 25 65 19 -57 c11 -31 17
-58 16 -59z m-476 74 c-3 -11 -16 -29 -29 -39 -13 -10 -24 -22 -24 -27 0 -11
-31 -44 -42 -44 -23 0 -3 47 39 90 48 50 65 56 56 20z m-586 -26 c-12 -13 -37
6 -37 28 l0 22 22 -21 c12 -13 19 -25 15 -29z m-681 -5 c3 -6 2 -15 -4 -21 -6
-6 -11 -2 -15 11 -5 22 7 29 19 10z m2224 1 c13 -8 12 -10 -5 -11 -11 -1 -27
-2 -35 -3 -10 -1 -15 -12 -15 -39 0 -28 -4 -37 -16 -37 -20 0 -26 14 -24 55 1
22 8 31 26 36 35 10 52 10 69 -1z m-1565 -40 c21 -41 19 -57 -5 -27 -18 23
-27 57 -15 57 2 0 11 -13 20 -30z m68 -37 c39 -78 51 -119 38 -127 -19 -12
-98 153 -87 181 9 22 14 16 49 -54z m757 61 c0 -3 -7 -21 -16 -40 -16 -34 -58
-64 -89 -64 -9 0 -18 -12 -21 -30 -4 -16 -12 -35 -20 -41 -14 -12 -74 -3 -74
11 0 11 45 42 92 64 22 11 41 29 48 47 7 16 22 36 34 44 21 15 46 20 46 9z
m628 -73 c3 -33 0 -56 -8 -66 -21 -25 -32 -17 -25 18 5 25 4 29 -5 17 -10 -12
-11 -11 -7 8 5 23 5 23 -14 6 -13 -11 -19 -13 -19 -4 0 9 -10 10 -35 6 -33 -7
-36 -5 -41 24 -9 44 -24 37 -24 -11 0 -41 0 -41 -22 -27 -34 23 -32 40 9 67
l38 23 13 -21 c18 -26 32 -27 32 -3 0 26 11 34 27 20 11 -9 18 -8 31 5 24 25
44 1 50 -62z m-1681 37 c-3 -8 -6 -5 -6 6 -1 11 2 17 5 13 3 -3 4 -12 1 -19z
m433 -13 c0 -8 -4 -17 -10 -20 -6 -4 -10 5 -10 20 0 15 4 24 10 20 6 -3 10
-12 10 -20z m123 1 c17 -14 24 -46 9 -46 -17 0 -54 39 -47 49 8 14 16 13 38
-3z m322 -36 c7 -11 -42 -26 -53 -16 -7 8 17 26 35 26 6 0 15 -4 18 -10z m528
-9 c-3 -10 0 -22 5 -25 6 -3 8 -14 5 -25 -3 -13 2 -20 21 -25 39 -10 31 -26
-13 -26 -21 0 -58 -8 -81 -19 -37 -17 -48 -17 -96 -6 l-54 12 -20 -35 -21 -35
-22 21 c-12 11 -33 22 -47 24 -17 2 -26 10 -28 26 -3 22 -1 23 27 17 23 -5 43
-1 72 14 22 12 51 21 65 21 13 0 36 7 49 16 31 20 44 12 38 -23 -4 -22 -2 -25
6 -13 6 8 11 32 11 52 0 39 8 46 57 47 26 1 30 -2 26 -18z m-903 -1 c0 -5 -4
-10 -10 -10 -5 0 -10 5 -10 10 0 6 5 10 10 10 6 0 10 -4 10 -10z m-25 -127
c31 -102 35 -157 21 -287 -4 -37 -11 -64 -15 -60 -5 5 -14 43 -21 84 -7 41
-17 84 -23 95 -14 27 -16 265 -2 265 6 0 24 -44 40 -97z m1120 87 c-3 -5 -11
-10 -16 -10 -6 0 -7 5 -4 10 3 6 11 10 16 10 6 0 7 -4 4 -10z m-1047 -16 c53
-11 52 -11 37 -48 -8 -19 -21 -72 -29 -118 -7 -46 -14 -71 -15 -56 0 15 -12
67 -26 114 -30 102 -32 129 -9 120 9 -3 28 -9 42 -12z m1072 2 c0 -2 -8 -10
-17 -17 -16 -13 -17 -12 -4 4 13 16 21 21 21 13z m-860 -25 c-12 -23 -29 -35
-36 -28 -10 9 16 47 32 47 11 0 12 -4 4 -19z m-150 -127 c-19 -56 -19 -57 -15
-17 5 44 27 102 32 86 2 -5 -6 -36 -17 -69z m-836 -933 c78 -12 98 -26 133
-96 20 -38 27 -70 31 -136 5 -99 -6 -146 -49 -201 -16 -20 -29 -42 -29 -47 0
-7 -36 -11 -100 -11 l-100 0 -20 33 c-14 22 -20 48 -18 82 0 28 -7 100 -17
160 -16 103 -17 214 0 256 5 14 11 13 53 -7 26 -12 78 -27 116 -33z m-308
-206 c62 -208 62 -214 29 -253 l-27 -32 -112 0 c-111 0 -113 0 -124 25 -7 14
-12 39 -12 56 0 63 169 394 191 372 4 -4 29 -80 55 -168z m772 89 l-3 -49 -5
57 c-3 31 -1 53 3 49 5 -5 7 -30 5 -57z m-142 -16 c15 -18 35 -53 46 -78 30
-70 58 -203 51 -244 l-6 -37 -61 3 -61 3 -2 55 c-2 30 -8 88 -14 128 -11 73
-4 202 11 202 5 0 20 -15 36 -32z m1816 -102 c39 -9 62 -57 62 -133 1 -85 -22
-117 -88 -121 -58 -4 -76 9 -76 56 0 19 -5 64 -11 99 -6 35 -8 78 -5 97 l6 33
43 -13 c23 -7 54 -15 69 -18z m-187 -123 c35 -124 30 -135 -63 -131 -65 3 -67
4 -70 30 -5 43 81 219 98 201 5 -4 20 -49 35 -100z m353 30 c11 -21 25 -62 32
-91 14 -60 7 -76 -31 -70 -19 2 -25 11 -31 43 -10 60 -9 155 2 155 5 0 18 -17
28 -37z m-1338 -48 c19 -23 25 -95 9 -106 -20 -13 -83 -11 -97 3 -15 15 -15
60 0 93 9 19 19 25 43 25 18 0 38 -7 45 -15z m-117 -108 c-8 -15 -23 5 -19 26
3 12 5 27 6 32 1 6 6 -3 9 -20 4 -16 6 -33 4 -38z"/>
<path d="M1700 3100 c0 -5 5 -10 11 -10 5 0 7 5 4 10 -3 6 -8 10 -11 10 -2 0
-4 -4 -4 -10z"/>
<path d="M1240 835 l0 -175 40 0 40 0 0 175 0 175 -40 0 -40 0 0 -175z"/>
<path d="M1390 835 l0 -175 40 0 40 0 0 175 0 175 -40 0 -40 0 0 -175z"/>
<path d="M3458 994 c-35 -19 -48 -43 -48 -91 0 -54 26 -78 110 -103 56 -17 70
-25 70 -41 0 -41 -83 -49 -162 -14 -15 6 -18 2 -18 -28 0 -34 1 -36 50 -46 68
-15 104 -14 144 3 44 18 66 51 66 98 0 51 -24 72 -109 98 -63 18 -71 24 -71
45 0 37 58 45 138 20 20 -7 22 -4 22 28 0 31 -3 35 -31 41 -54 10 -133 6 -161
-10z"/>
<path d="M4092 990 c-13 -12 -22 -33 -22 -50 0 -23 -5 -30 -20 -30 -16 0 -20
-7 -20 -30 0 -23 4 -30 20 -30 19 0 20 -7 20 -95 l0 -95 40 0 40 0 0 95 0 95
35 0 c32 0 35 2 35 30 0 28 -3 30 -36 30 -31 0 -35 3 -32 23 2 17 11 23 36 25
26 3 32 7 32 28 0 22 -3 24 -53 24 -40 0 -59 -5 -75 -20z"/>
<path d="M4800 975 c0 -34 1 -35 40 -35 39 0 40 1 40 35 0 34 -1 35 -40 35
-39 0 -40 -1 -40 -35z"/>
<path d="M580 830 l0 -170 40 0 40 0 0 67 0 67 68 -67 c67 -66 68 -67 122 -67
l55 0 -90 90 -90 90 80 80 80 80 -50 0 c-47 0 -52 -3 -112 -62 l-63 -62 0 62
0 62 -40 0 -40 0 0 -170z"/>
<path d="M2350 830 l0 -170 115 0 115 0 0 30 0 30 -75 0 -75 0 0 45 0 45 70 0
70 0 0 30 0 30 -70 0 -70 0 0 35 0 35 75 0 75 0 0 30 0 30 -115 0 -115 0 0
-170z"/>
<path d="M959 897 c-57 -38 -72 -123 -32 -183 23 -35 93 -58 153 -50 71 10 80
15 80 46 l0 28 -50 -16 c-58 -18 -94 -10 -118 26 l-14 22 96 0 96 0 0 38 c0
21 -7 48 -16 60 -38 55 -135 69 -195 29z m119 -39 c26 -26 13 -38 -38 -38 -51
0 -64 12 -38 38 15 15 61 15 76 0z"/>
<path d="M1960 903 c-17 -12 -25 -13 -28 -5 -2 7 -21 12 -43 12 l-39 0 0 -125
0 -125 39 0 38 0 5 84 c5 91 16 116 54 116 34 0 44 -28 44 -119 l0 -81 41 0
41 0 -4 104 c-3 94 -6 108 -27 130 -29 31 -84 35 -121 9z"/>
<path d="M2700 898 c-68 -46 -77 -145 -19 -199 33 -31 97 -45 148 -34 27 6 31
11 31 41 0 31 -2 34 -19 24 -52 -27 -112 3 -113 58 -2 52 27 75 85 69 l48 -4
-3 31 c-3 31 -4 31 -63 34 -50 2 -67 -1 -95 -20z"/>
<path d="M2973 900 c-41 -25 -53 -48 -53 -105 0 -63 21 -99 70 -119 49 -20 81
-20 123 -2 48 20 69 50 75 104 5 59 -16 105 -58 127 -41 21 -118 19 -157 -5z
m121 -62 c32 -45 6 -118 -41 -118 -44 0 -69 71 -43 121 15 27 64 25 84 -3z"/>
<path d="M3763 914 c-7 -3 -13 -16 -13 -29 0 -23 2 -24 49 -18 59 7 101 -2
101 -21 0 -10 -19 -15 -66 -18 -55 -3 -70 -8 -85 -27 -34 -42 -24 -103 22
-126 35 -19 57 -19 93 0 35 18 36 18 36 0 0 -11 11 -15 40 -15 l40 0 0 99 c0
91 -2 102 -24 128 -22 26 -30 28 -103 30 -43 1 -84 0 -90 -3z m137 -154 c0
-11 -11 -27 -25 -36 -31 -20 -65 -10 -65 20 0 31 7 36 52 36 31 0 38 -4 38
-20z"/>
<path d="M4273 913 c-7 -2 -13 -15 -13 -27 0 -21 4 -22 72 -22 61 1 73 -2 76
-16 3 -15 -4 -18 -48 -18 -55 0 -104 -19 -114 -45 -13 -35 -5 -67 23 -96 33
-33 67 -37 111 -14 27 14 30 14 30 0 0 -11 11 -15 40 -15 l40 0 0 103 c-1 106
-6 124 -47 145 -21 12 -146 15 -170 5z m137 -151 c0 -24 -34 -55 -56 -50 -9 1
-22 10 -27 20 -16 24 8 48 49 48 26 0 34 -4 34 -18z"/>
<path d="M4676 899 c-21 -17 -26 -18 -26 -5 0 12 -10 16 -40 16 l-40 0 0 -125
0 -125 40 0 40 0 0 78 c0 98 14 122 71 122 37 0 39 2 39 30 0 26 -3 30 -29 30
-15 0 -40 -9 -55 -21z"/>
<path d="M4982 910 c-22 -9 -42 -46 -42 -76 0 -28 46 -62 92 -69 64 -10 78
-20 56 -42 -15 -15 -26 -16 -78 -7 l-60 10 0 -27 c0 -26 4 -28 54 -34 97 -12
166 19 166 75 0 45 -25 68 -91 81 -46 9 -59 15 -57 28 3 13 16 16 66 15 58 -1
62 1 62 21 0 13 -7 26 -16 29 -23 9 -126 6 -152 -4z"/>
<path d="M1554 833 c18 -43 44 -102 56 -132 27 -61 20 -84 -24 -89 -20 -3 -26
-9 -26 -29 0 -25 2 -25 48 -20 61 7 73 23 132 179 70 183 68 168 22 168 l-38
0 -24 -76 c-13 -41 -27 -77 -31 -79 -3 -3 -20 30 -36 73 l-30 77 -42 3 -41 3
34 -78z"/>
<path d="M4800 785 l0 -125 40 0 40 0 0 125 0 125 -40 0 -40 0 0 -125z"/>
<path d="M2221 524 c-35 -45 -109 -273 -95 -295 15 -26 40 21 35 67 -5 53 66
210 100 223 18 6 18 7 -1 18 -16 11 -22 9 -39 -13z"/>
<path d="M3096 532 c-40 -45 -117 -285 -97 -305 5 -5 22 16 38 45 29 51 69 96
77 87 3 -3 -4 -35 -30 -128 -10 -34 12 -24 39 19 12 19 16 31 9 26 -9 -5 -10
2 -5 26 12 58 9 73 -13 76 -15 2 -29 -9 -49 -39 -37 -52 -42 -38 -15 42 26 77
56 128 81 137 18 7 18 8 0 19 -15 10 -22 9 -35 -5z"/>
<path d="M2985 492 c-6 -5 -48 -14 -94 -21 -99 -13 -135 -32 -125 -64 3 -12
12 -28 18 -35 10 -10 12 -7 8 16 -2 16 2 33 10 40 16 13 98 33 98 23 0 -23
-46 -158 -57 -164 -16 -10 -18 -80 -2 -75 7 2 25 50 41 107 38 137 39 139 91
143 28 2 42 8 42 17 0 17 -17 24 -30 13z"/>
<path d="M1577 479 c-12 -7 -17 -21 -16 -47 1 -28 3 -31 6 -12 6 30 19 40 56
40 27 0 28 -2 22 -32 -4 -18 -13 -43 -21 -56 -8 -12 -14 -28 -12 -35 6 -25
-25 -77 -48 -83 -13 -3 -24 -13 -24 -21 0 -11 6 -12 23 -6 28 10 80 10 135 -1
37 -7 42 -6 42 11 0 15 -8 18 -59 18 -33 0 -62 3 -65 6 -3 3 2 25 11 48 l17
43 49 -6 c43 -6 48 -5 45 11 -3 15 -11 17 -47 15 l-43 -4 7 34 c11 49 12 50
71 42 42 -5 54 -3 54 7 0 10 -15 15 -47 16 -25 1 -49 6 -52 10 -9 12 -84 13
-104 2z"/>
<path d="M3453 481 c-17 -11 -22 -39 -13 -68 l8 -28 1 31 c1 34 15 44 57 44
21 0 24 -3 18 -27 -4 -16 -12 -41 -19 -58 -7 -16 -18 -49 -24 -72 -9 -32 -18
-44 -36 -49 -14 -3 -25 -13 -25 -21 0 -11 5 -13 18 -7 22 10 75 11 135 1 42
-7 47 -6 47 10 0 16 -6 18 -35 15 -19 -2 -51 -1 -70 2 -29 6 -33 10 -25 24 6
9 15 30 20 46 10 28 12 28 61 22 45 -6 50 -5 47 11 -3 15 -12 17 -46 15 -45
-4 -50 4 -35 56 5 22 9 24 58 17 30 -3 56 -2 59 3 3 5 -16 12 -43 16 -26 3
-51 9 -54 12 -8 9 -93 13 -104 5z"/>
<path d="M4043 458 c-5 -7 -15 -27 -22 -45 -7 -17 -20 -34 -29 -38 -12 -5 -13
-8 -4 -14 10 -6 10 -21 -2 -75 -12 -59 -12 -68 1 -73 8 -3 24 4 36 18 13 13
15 17 4 9 -27 -20 -32 -4 -16 58 12 51 17 57 42 60 30 4 27 22 -3 22 -19 0
-19 1 -3 35 9 19 20 35 25 35 4 0 8 5 8 10 0 14 -26 12 -37 -2z"/>
<path d="M4130 425 c-10 -12 -10 -15 3 -15 8 0 20 7 27 15 10 12 10 15 -3 15
-8 0 -20 -7 -27 -15z"/>
<path d="M1995 407 c-39 -55 -112 -353 -92 -373 13 -13 19 3 27 73 12 95 43
173 90 225 l39 43 1 -38 c0 -54 -23 -105 -52 -109 -20 -4 -21 -6 -5 -12 26
-12 46 0 63 39 22 54 23 105 1 119 -15 9 -23 5 -53 -26 -18 -21 -34 -36 -34
-33 0 12 26 63 42 81 17 19 17 22 4 27 -9 4 -22 -3 -31 -16z"/>
<path d="M1907 385 c-4 -11 -19 -33 -32 -50 l-24 -30 -12 33 c-6 17 -17 32
-24 32 -20 0 -27 -17 -11 -23 7 -3 16 -18 19 -33 4 -23 -3 -37 -39 -77 -43
-48 -56 -88 -32 -103 6 -4 8 -3 4 4 -9 15 7 51 43 96 l31 39 11 -32 c6 -17 17
-31 24 -31 20 0 27 17 11 23 -7 3 -16 18 -19 33 -4 22 2 33 30 59 25 23 34 38
31 56 -3 22 -4 23 -11 4z"/>
<path d="M3780 386 c0 -9 -13 -30 -30 -48 l-29 -33 -7 33 c-4 19 -13 32 -21
32 -10 0 -13 -6 -9 -16 20 -51 18 -64 -17 -106 -48 -59 -60 -85 -49 -104 7
-13 10 -11 15 12 3 16 20 49 38 74 l33 45 13 -33 c13 -32 27 -40 38 -22 3 6 2
10 -4 10 -5 0 -12 14 -16 31 -6 27 -2 36 29 68 37 38 44 55 26 66 -5 3 -10 -1
-10 -9z"/>
<path d="M2585 383 c-26 -5 -60 -58 -68 -107 -11 -69 29 -88 78 -36 33 34 26
40 -12 10 -31 -24 -58 -27 -49 -4 3 9 6 24 6 35 0 14 7 19 30 19 31 0 50 22
50 59 0 23 -8 28 -35 24z m2 -70 c-3 -3 -13 -3 -21 -1 -15 3 -15 6 1 28 l18
25 3 -23 c2 -13 1 -26 -1 -29z"/>
<path d="M3245 383 c-26 -5 -60 -58 -68 -107 -11 -69 29 -88 78 -36 33 34 26
40 -12 10 -31 -24 -58 -27 -49 -4 3 9 6 24 6 35 0 14 7 19 30 19 31 0 50 22
50 59 0 23 -8 28 -35 24z m2 -70 c-3 -3 -13 -3 -21 -1 -15 3 -15 6 1 28 l18
25 3 -23 c2 -13 1 -26 -1 -29z"/>
<path d="M2231 330 c-35 -81 -25 -120 31 -120 34 0 63 41 73 103 8 46 -1 59
-48 63 -33 3 -36 0 -56 -46z m67 -58 c-16 -33 -29 -47 -43 -47 -17 0 -20 6
-17 34 4 50 23 84 52 91 35 8 38 -19 8 -78z"/>
<path d="M2435 338 c-15 -24 -25 -36 -22 -28 2 8 7 25 11 38 9 28 -5 28 -30 0
-10 -12 -13 -18 -6 -14 15 9 15 11 -3 -48 -18 -60 -18 -66 -2 -66 6 0 28 33
47 73 26 55 35 67 38 50 2 -13 7 -23 12 -23 12 0 23 37 15 50 -13 21 -35 9
-60 -32z"/>
<path d="M3835 344 c-39 -82 -29 -134 25 -134 33 0 54 28 71 95 14 55 7 66
-44 71 -32 3 -37 -1 -52 -32z m76 -42 c-15 -54 -43 -87 -66 -79 -32 13 1 123
39 129 32 6 38 -6 27 -50z"/>
<path d="M4097 363 c-11 -10 -8 -25 3 -18 15 10 12 -20 -9 -75 -13 -34 -15
-50 -7 -50 15 0 38 38 41 69 1 14 5 38 10 54 6 23 4 27 -12 27 -11 0 -23 -3
-26 -7z"/>
<path d="M4206 348 c-8 -13 -20 -42 -27 -65 -14 -51 -2 -73 41 -73 20 0 30 7
39 28 l13 27 -26 -24 c-27 -26 -56 -23 -56 7 0 25 43 106 55 104 6 -1 11 -10
13 -22 5 -27 22 -15 22 16 0 20 -5 24 -30 24 -20 0 -34 -7 -44 -22z"/>
<path d="M600 335 c0 -13 54 -15 430 -15 376 0 430 2 430 15 0 13 -54 15 -430
15 -376 0 -430 -2 -430 -15z"/>
<path d="M4330 335 c0 -13 54 -15 430 -15 376 0 430 2 430 15 0 13 -54 15
-430 15 -376 0 -430 -2 -430 -15z"/>
</g>
</svg>
